<svg width="236" height="211" viewBox="0 0 236 211" fill="none" xmlns="http://www.w3.org/2000/svg">
<path d="M231.659 0H122.19H122.066H121.92H121.738H121.515L117.659 0.156982L115.159 0.587149H114.159H113.541H106.433C88.0502 0.587149 70.6689 11.1508 62.3841 27.5929C62.3841 27.5929 6.30455 139.011 5.73576 140.341C-0.140335 153.663 -2.46139 170.65 3.41241 184.404C10.0455 199.931 25.8265 210.157 42.6115 210.157H231.659C235.968 210.157 236.164 203.271 231.659 203.271H42.6115C30.442 203.271 18.7426 196.839 12.2711 186.494H36.9626H178.221C182.53 186.494 182.726 179.608 178.221 179.608H61.8846C65.2335 177.59 68.3598 175.151 71.1959 172.315L99.3525 144.158C99.4425 144.068 99.5201 143.97 99.5986 143.872H121.253C136.223 143.872 148.402 131.788 148.402 116.935V98.3309H169.211V116.935C169.211 131.788 181.39 143.872 196.36 143.872H231.659C235.968 143.872 236.164 136.986 231.659 136.986H196.36C185.187 136.986 176.097 127.991 176.097 116.935V57.5371C176.097 46.4813 185.187 37.4863 196.36 37.4863H231.659C235.968 37.4863 236.164 30.6002 231.659 30.6002H196.36C181.39 30.6002 169.211 42.6839 169.211 57.5371V91.4449H148.402V57.5531C148.402 42.7059 136.227 30.6223 121.263 30.6163L98.6038 30.6076C94.1806 30.6076 94.1563 37.4913 98.601 37.4936L121.26 37.5023C132.429 37.5065 141.516 46.5015 141.516 57.5531V116.936C141.516 127.991 132.426 136.986 121.253 136.986H15.283L60.181 47.2727C63.2985 41.2332 69.4817 37.4867 76.326 37.4867C80.8368 37.4867 80.8378 30.6007 76.3256 30.6007C73.3774 30.6007 70.5174 31.1061 67.847 32.0569C75.0305 17.1922 89.8062 7.47366 106.433 7.47366H231.659C236.221 7.47366 236.221 0 231.659 0ZM66.327 167.445C58.4829 175.289 48.0547 179.608 36.9626 179.608H8.94879C5.05771 168.621 7.13776 155.724 11.2097 145.167H88.6057L66.327 167.445Z" fill="black"/>
</svg>
